<mxfile host="65bd71144e">
    <diagram id="ToOQHwOvI2iCdkfKfk4h" name="Page-1">
        <mxGraphModel dx="1708" dy="781" grid="1" gridSize="10" guides="1" tooltips="1" connect="1" arrows="1" fold="1" page="1" pageScale="1" pageWidth="2000" pageHeight="2000" math="0" shadow="0">
            <root>
                <mxCell id="0"/>
                <mxCell id="1" parent="0"/>
                <mxCell id="7" style="edgeStyle=none;html=1;exitX=0.5;exitY=1;exitDx=0;exitDy=0;entryX=0.5;entryY=0;entryDx=0;entryDy=0;" parent="1" source="2" target="5" edge="1">
                    <mxGeometry relative="1" as="geometry"/>
                </mxCell>
                <mxCell id="2" value=":80" style="ellipse;whiteSpace=wrap;html=1;aspect=fixed;" parent="1" vertex="1">
                    <mxGeometry x="320" y="10" width="40" height="40" as="geometry"/>
                </mxCell>
                <mxCell id="8" style="edgeStyle=none;html=1;exitX=0.5;exitY=1;exitDx=0;exitDy=0;" parent="1" source="3" edge="1">
                    <mxGeometry relative="1" as="geometry">
                        <mxPoint x="420" y="170" as="targetPoint"/>
                    </mxGeometry>
                </mxCell>
                <mxCell id="3" value=":8080" style="ellipse;whiteSpace=wrap;html=1;aspect=fixed;" parent="1" vertex="1">
                    <mxGeometry x="470" y="10" width="40" height="40" as="geometry"/>
                </mxCell>
                <mxCell id="9" style="edgeStyle=none;html=1;exitX=0.5;exitY=1;exitDx=0;exitDy=0;entryX=0.5;entryY=0;entryDx=0;entryDy=0;" parent="1" source="4" target="6" edge="1">
                    <mxGeometry relative="1" as="geometry"/>
                </mxCell>
                <mxCell id="11" style="edgeStyle=none;html=1;exitX=0.5;exitY=1;exitDx=0;exitDy=0;entryX=0.5;entryY=0;entryDx=0;entryDy=0;" parent="1" source="4" target="10" edge="1">
                    <mxGeometry relative="1" as="geometry"/>
                </mxCell>
                <mxCell id="4" value=":3000" style="ellipse;whiteSpace=wrap;html=1;aspect=fixed;" parent="1" vertex="1">
                    <mxGeometry x="630" y="10" width="40" height="40" as="geometry"/>
                </mxCell>
                <mxCell id="5" value="42.fr" style="whiteSpace=wrap;html=1;aspect=fixed;" parent="1" vertex="1">
                    <mxGeometry x="400" y="170" width="40" height="40" as="geometry"/>
                </mxCell>
                <mxCell id="6" value="1.42.fr" style="whiteSpace=wrap;html=1;aspect=fixed;" parent="1" vertex="1">
                    <mxGeometry x="560" y="170" width="40" height="40" as="geometry"/>
                </mxCell>
                <mxCell id="10" value="2.42.fr" style="whiteSpace=wrap;html=1;aspect=fixed;" parent="1" vertex="1">
                    <mxGeometry x="720" y="170" width="40" height="40" as="geometry"/>
                </mxCell>
                <mxCell id="16" style="edgeStyle=none;html=1;exitX=0.5;exitY=1;exitDx=0;exitDy=0;entryX=0.5;entryY=0;entryDx=0;entryDy=0;" parent="1" source="12" target="14" edge="1">
                    <mxGeometry relative="1" as="geometry"/>
                </mxCell>
                <mxCell id="19" style="edgeStyle=none;html=1;exitX=1;exitY=1;exitDx=0;exitDy=0;entryX=0.5;entryY=0;entryDx=0;entryDy=0;" parent="1" source="12" target="15" edge="1">
                    <mxGeometry relative="1" as="geometry"/>
                </mxCell>
                <mxCell id="12" value=":5000" style="ellipse;whiteSpace=wrap;html=1;aspect=fixed;" parent="1" vertex="1">
                    <mxGeometry x="800" y="10" width="40" height="40" as="geometry"/>
                </mxCell>
                <mxCell id="17" style="edgeStyle=none;html=1;exitX=0.5;exitY=1;exitDx=0;exitDy=0;" parent="1" source="13" edge="1">
                    <mxGeometry relative="1" as="geometry">
                        <mxPoint x="900" y="170" as="targetPoint"/>
                    </mxGeometry>
                </mxCell>
                <mxCell id="18" style="edgeStyle=none;html=1;exitX=0.5;exitY=1;exitDx=0;exitDy=0;entryX=0.5;entryY=0;entryDx=0;entryDy=0;" parent="1" source="13" target="15" edge="1">
                    <mxGeometry relative="1" as="geometry"/>
                </mxCell>
                <mxCell id="13" value=":6000" style="ellipse;whiteSpace=wrap;html=1;aspect=fixed;" parent="1" vertex="1">
                    <mxGeometry x="960" y="10" width="40" height="40" as="geometry"/>
                </mxCell>
                <mxCell id="14" value="test&lt;br&gt;1.test" style="whiteSpace=wrap;html=1;aspect=fixed;" parent="1" vertex="1">
                    <mxGeometry x="880" y="170" width="40" height="40" as="geometry"/>
                </mxCell>
                <mxCell id="15" value="ttt" style="whiteSpace=wrap;html=1;aspect=fixed;" parent="1" vertex="1">
                    <mxGeometry x="1040" y="170" width="40" height="40" as="geometry"/>
                </mxCell>
                <mxCell id="20" value="CONNECTION (host/port):" style="text;html=1;align=center;verticalAlign=middle;resizable=0;points=[];autosize=1;strokeColor=none;fillColor=none;" parent="1" vertex="1">
                    <mxGeometry y="15" width="170" height="30" as="geometry"/>
                </mxCell>
                <mxCell id="21" value="SERVERS (server_names):" style="text;html=1;align=center;verticalAlign=middle;resizable=0;points=[];autosize=1;strokeColor=none;fillColor=none;" parent="1" vertex="1">
                    <mxGeometry y="175" width="170" height="30" as="geometry"/>
                </mxCell>
                <mxCell id="59" value="Connection" style="rounded=0;whiteSpace=wrap;html=1;" parent="1" vertex="1">
                    <mxGeometry x="80" y="950" width="820" height="30" as="geometry"/>
                </mxCell>
                <mxCell id="60" value="" style="shape=flexArrow;endArrow=classic;startArrow=classic;html=1;" parent="1" edge="1">
                    <mxGeometry width="100" height="100" relative="1" as="geometry">
                        <mxPoint x="441" y="1200" as="sourcePoint"/>
                        <mxPoint x="440" y="1000" as="targetPoint"/>
                    </mxGeometry>
                </mxCell>
                <mxCell id="61" value="" style="shape=flexArrow;endArrow=classic;startArrow=classic;html=1;" parent="1" edge="1">
                    <mxGeometry width="100" height="100" relative="1" as="geometry">
                        <mxPoint x="521" y="1200" as="sourcePoint"/>
                        <mxPoint x="520" y="1000" as="targetPoint"/>
                    </mxGeometry>
                </mxCell>
                <mxCell id="62" value="" style="shape=flexArrow;endArrow=classic;startArrow=classic;html=1;" parent="1" edge="1">
                    <mxGeometry width="100" height="100" relative="1" as="geometry">
                        <mxPoint x="601" y="1200" as="sourcePoint"/>
                        <mxPoint x="600" y="1000" as="targetPoint"/>
                    </mxGeometry>
                </mxCell>
                <mxCell id="63" value="" style="shape=flexArrow;endArrow=classic;startArrow=classic;html=1;" parent="1" edge="1">
                    <mxGeometry width="100" height="100" relative="1" as="geometry">
                        <mxPoint x="680.5" y="1200" as="sourcePoint"/>
                        <mxPoint x="679.5" y="1000" as="targetPoint"/>
                    </mxGeometry>
                </mxCell>
                <mxCell id="64" value="" style="shape=flexArrow;endArrow=classic;startArrow=classic;html=1;" parent="1" edge="1">
                    <mxGeometry width="100" height="100" relative="1" as="geometry">
                        <mxPoint x="761" y="1200" as="sourcePoint"/>
                        <mxPoint x="760" y="1000" as="targetPoint"/>
                    </mxGeometry>
                </mxCell>
                <mxCell id="65" value="" style="shape=flexArrow;endArrow=classic;startArrow=classic;html=1;" parent="1" edge="1">
                    <mxGeometry width="100" height="100" relative="1" as="geometry">
                        <mxPoint x="841" y="1200" as="sourcePoint"/>
                        <mxPoint x="840" y="1000" as="targetPoint"/>
                    </mxGeometry>
                </mxCell>
                <mxCell id="66" value="" style="ellipse;whiteSpace=wrap;html=1;aspect=fixed;" parent="1" vertex="1">
                    <mxGeometry x="470" y="910" width="20" height="20" as="geometry"/>
                </mxCell>
                <mxCell id="67" value="" style="ellipse;whiteSpace=wrap;html=1;aspect=fixed;fillColor=#0050ef;fontColor=#ffffff;strokeColor=#001DBC;" parent="1" vertex="1">
                    <mxGeometry x="830" y="990" width="20" height="20" as="geometry"/>
                </mxCell>
                <mxCell id="68" value="" style="ellipse;whiteSpace=wrap;html=1;aspect=fixed;fillColor=#0050ef;fontColor=#ffffff;strokeColor=#001DBC;" parent="1" vertex="1">
                    <mxGeometry x="670" y="990" width="20" height="20" as="geometry"/>
                </mxCell>
                <mxCell id="69" value="" style="ellipse;whiteSpace=wrap;html=1;aspect=fixed;fillColor=#0050ef;fontColor=#ffffff;strokeColor=#001DBC;" parent="1" vertex="1">
                    <mxGeometry x="750" y="990" width="20" height="20" as="geometry"/>
                </mxCell>
                <mxCell id="83" value="" style="ellipse;whiteSpace=wrap;html=1;aspect=fixed;fillColor=#0050ef;fontColor=#ffffff;strokeColor=#001DBC;" parent="1" vertex="1">
                    <mxGeometry x="590" y="990" width="20" height="20" as="geometry"/>
                </mxCell>
                <mxCell id="84" value="" style="ellipse;whiteSpace=wrap;html=1;aspect=fixed;fillColor=#008a00;fontColor=#ffffff;strokeColor=#005700;" parent="1" vertex="1">
                    <mxGeometry x="510" y="990" width="20" height="20" as="geometry"/>
                </mxCell>
                <mxCell id="85" value="" style="ellipse;whiteSpace=wrap;html=1;aspect=fixed;fillColor=#008a00;fontColor=#ffffff;strokeColor=#005700;" parent="1" vertex="1">
                    <mxGeometry x="430" y="990" width="20" height="20" as="geometry"/>
                </mxCell>
                <mxCell id="90" value="" style="curved=1;endArrow=classic;html=1;" parent="1" edge="1">
                    <mxGeometry width="50" height="50" relative="1" as="geometry">
                        <mxPoint x="520" y="1210" as="sourcePoint"/>
                        <mxPoint x="600" y="1200" as="targetPoint"/>
                        <Array as="points">
                            <mxPoint x="460" y="1280"/>
                            <mxPoint x="580" y="1280"/>
                            <mxPoint x="540" y="1240"/>
                        </Array>
                    </mxGeometry>
                </mxCell>
                <mxCell id="95" value="" style="edgeStyle=none;html=1;" parent="1" source="92" target="94" edge="1">
                    <mxGeometry relative="1" as="geometry"/>
                </mxCell>
                <mxCell id="92" value="&lt;br&gt;Request Handler&lt;span style=&quot;color: rgba(0, 0, 0, 0); font-family: monospace; font-size: 0px; text-align: start;&quot;&gt;%3CmxGraphModel%3E%3Croot%3E%3CmxCell%20id%3D%220%22%2F%3E%3CmxCell%20id%3D%221%22%20parent%3D%220%22%2F%3E%3CmxCell%20id%3D%222%22%20value%3D%22%22%20style%3D%22ellipse%3BwhiteSpace%3Dwrap%3Bhtml%3D1%3Baspect%3Dfixed%3BfillColor%3D%23008a00%3BfontColor%3D%23ffffff%3BstrokeColor%3D%23005700%3B%22%20vertex%3D%221%22%20parent%3D%221%22%3E%3CmxGeometry%20x%3D%22510%22%20y%3D%22990%22%20width%3D%2220%22%20height%3D%2220%22%20as%3D%22geometry%22%2F%3E%3C%2FmxCell%3E%3C%2Froot%3E%3C%2FmxGraphModel%3E&lt;br&gt;Ha&lt;br&gt;&lt;/span&gt;" style="rhombus;whiteSpace=wrap;html=1;" parent="1" vertex="1">
                    <mxGeometry x="1280" y="610" width="80" height="80" as="geometry"/>
                </mxCell>
                <mxCell id="146" style="edgeStyle=none;html=1;exitX=0.5;exitY=0;exitDx=0;exitDy=0;entryX=1;entryY=1;entryDx=0;entryDy=0;" parent="1" source="93" target="134" edge="1">
                    <mxGeometry relative="1" as="geometry"/>
                </mxCell>
                <mxCell id="93" value="Response Handler" style="rhombus;whiteSpace=wrap;html=1;" parent="1" vertex="1">
                    <mxGeometry x="1570" y="610" width="80" height="80" as="geometry"/>
                </mxCell>
                <mxCell id="98" value="" style="edgeStyle=none;html=1;" parent="1" source="94" target="97" edge="1">
                    <mxGeometry relative="1" as="geometry"/>
                </mxCell>
                <mxCell id="94" value="Receive headers" style="whiteSpace=wrap;html=1;" parent="1" vertex="1">
                    <mxGeometry x="1260" y="720" width="120" height="30" as="geometry"/>
                </mxCell>
                <mxCell id="100" value="" style="edgeStyle=none;html=1;" parent="1" source="97" target="99" edge="1">
                    <mxGeometry relative="1" as="geometry"/>
                </mxCell>
                <mxCell id="101" style="edgeStyle=none;html=1;exitX=0.75;exitY=1;exitDx=0;exitDy=0;entryX=0;entryY=1;entryDx=0;entryDy=0;" parent="1" source="97" target="93" edge="1">
                    <mxGeometry relative="1" as="geometry">
                        <Array as="points">
                            <mxPoint x="1350" y="860"/>
                        </Array>
                    </mxGeometry>
                </mxCell>
                <mxCell id="104" value="Wrong request" style="edgeLabel;html=1;align=center;verticalAlign=middle;resizable=0;points=[];" parent="101" vertex="1" connectable="0">
                    <mxGeometry x="-0.104" y="-1" relative="1" as="geometry">
                        <mxPoint y="-1" as="offset"/>
                    </mxGeometry>
                </mxCell>
                <mxCell id="97" value="Parse headers" style="whiteSpace=wrap;html=1;" parent="1" vertex="1">
                    <mxGeometry x="1260" y="800" width="120" height="30" as="geometry"/>
                </mxCell>
                <mxCell id="103" value="" style="edgeStyle=none;html=1;" parent="1" source="99" target="102" edge="1">
                    <mxGeometry relative="1" as="geometry"/>
                </mxCell>
                <mxCell id="99" value="&amp;nbsp;Choose server based on domain" style="whiteSpace=wrap;html=1;" parent="1" vertex="1">
                    <mxGeometry x="1260" y="880" width="120" height="30" as="geometry"/>
                </mxCell>
                <mxCell id="105" style="edgeStyle=none;html=1;exitX=0.25;exitY=1;exitDx=0;exitDy=0;entryX=0.5;entryY=0;entryDx=0;entryDy=0;" parent="1" source="102" target="108" edge="1">
                    <mxGeometry relative="1" as="geometry">
                        <mxPoint x="1170" y="1040" as="targetPoint"/>
                    </mxGeometry>
                </mxCell>
                <mxCell id="106" style="edgeStyle=none;html=1;exitX=0.5;exitY=1;exitDx=0;exitDy=0;" parent="1" source="102" edge="1">
                    <mxGeometry relative="1" as="geometry">
                        <mxPoint x="1320" y="1040" as="targetPoint"/>
                    </mxGeometry>
                </mxCell>
                <mxCell id="107" style="edgeStyle=none;html=1;exitX=0.75;exitY=1;exitDx=0;exitDy=0;entryX=0.5;entryY=0;entryDx=0;entryDy=0;" parent="1" source="102" target="110" edge="1">
                    <mxGeometry relative="1" as="geometry">
                        <mxPoint x="1440" y="1040" as="targetPoint"/>
                    </mxGeometry>
                </mxCell>
                <mxCell id="111" value="Not found" style="edgeStyle=none;html=1;exitX=1;exitY=1;exitDx=0;exitDy=0;" parent="1" source="102" target="93" edge="1">
                    <mxGeometry relative="1" as="geometry">
                        <Array as="points">
                            <mxPoint x="1400" y="1000"/>
                        </Array>
                    </mxGeometry>
                </mxCell>
                <mxCell id="102" value="Choose route" style="whiteSpace=wrap;html=1;" parent="1" vertex="1">
                    <mxGeometry x="1260" y="960" width="120" height="30" as="geometry"/>
                </mxCell>
                <mxCell id="108" value="Redirect" style="rhombus;whiteSpace=wrap;html=1;" parent="1" vertex="1">
                    <mxGeometry x="1160" y="1040" width="80" height="80" as="geometry"/>
                </mxCell>
                <mxCell id="114" style="edgeStyle=none;html=1;exitX=0.5;exitY=1;exitDx=0;exitDy=0;" parent="1" source="108" target="93" edge="1">
                    <mxGeometry relative="1" as="geometry">
                        <Array as="points">
                            <mxPoint x="1150" y="1150"/>
                            <mxPoint x="1070" y="1120"/>
                            <mxPoint x="1030" y="860"/>
                            <mxPoint x="1190" y="570"/>
                            <mxPoint x="1450" y="570"/>
                        </Array>
                    </mxGeometry>
                </mxCell>
                <mxCell id="116" style="edgeStyle=none;html=1;exitX=0.5;exitY=1;exitDx=0;exitDy=0;entryX=0.5;entryY=0;entryDx=0;entryDy=0;" parent="1" source="109" target="117" edge="1">
                    <mxGeometry relative="1" as="geometry">
                        <mxPoint x="1220" y="1160" as="targetPoint"/>
                    </mxGeometry>
                </mxCell>
                <mxCell id="120" style="edgeStyle=none;html=1;exitX=0.5;exitY=1;exitDx=0;exitDy=0;entryX=0.5;entryY=0;entryDx=0;entryDy=0;" parent="1" source="109" target="119" edge="1">
                    <mxGeometry relative="1" as="geometry"/>
                </mxCell>
                <mxCell id="109" value="Path" style="rhombus;whiteSpace=wrap;html=1;" parent="1" vertex="1">
                    <mxGeometry x="1280" y="1040" width="80" height="80" as="geometry"/>
                </mxCell>
                <mxCell id="140" value="" style="edgeStyle=none;html=1;exitX=0.975;exitY=0.394;exitDx=0;exitDy=0;exitPerimeter=0;entryX=0.5;entryY=1;entryDx=0;entryDy=0;" parent="1" source="110" target="139" edge="1">
                    <mxGeometry relative="1" as="geometry"/>
                </mxCell>
                <mxCell id="110" value="CGI" style="rhombus;whiteSpace=wrap;html=1;" parent="1" vertex="1">
                    <mxGeometry x="1510" y="1070" width="80" height="80" as="geometry"/>
                </mxCell>
                <mxCell id="121" style="edgeStyle=none;html=1;exitX=0.5;exitY=1;exitDx=0;exitDy=0;entryX=0.5;entryY=0;entryDx=0;entryDy=0;" parent="1" source="117" target="122" edge="1">
                    <mxGeometry relative="1" as="geometry">
                        <mxPoint x="1170" y="1260" as="targetPoint"/>
                    </mxGeometry>
                </mxCell>
                <mxCell id="124" value="" style="edgeStyle=none;html=1;" parent="1" source="117" target="123" edge="1">
                    <mxGeometry relative="1" as="geometry"/>
                </mxCell>
                <mxCell id="126" style="edgeStyle=none;html=1;exitX=0.5;exitY=1;exitDx=0;exitDy=0;entryX=0.5;entryY=0;entryDx=0;entryDy=0;" parent="1" source="117" target="125" edge="1">
                    <mxGeometry relative="1" as="geometry"/>
                </mxCell>
                <mxCell id="117" value="GET" style="rhombus;whiteSpace=wrap;html=1;" parent="1" vertex="1">
                    <mxGeometry x="1220" y="1160" width="70" height="70" as="geometry"/>
                </mxCell>
                <mxCell id="132" style="edgeStyle=none;html=1;entryX=0.5;entryY=0;entryDx=0;entryDy=0;exitX=0.5;exitY=1;exitDx=0;exitDy=0;" parent="1" source="119" target="131" edge="1">
                    <mxGeometry relative="1" as="geometry"/>
                </mxCell>
                <mxCell id="133" style="edgeStyle=none;html=1;exitX=0.5;exitY=1;exitDx=0;exitDy=0;entryX=0.5;entryY=0;entryDx=0;entryDy=0;" parent="1" source="119" target="125" edge="1">
                    <mxGeometry relative="1" as="geometry"/>
                </mxCell>
                <mxCell id="119" value="POST&lt;br&gt;PUT" style="rhombus;whiteSpace=wrap;html=1;" parent="1" vertex="1">
                    <mxGeometry x="1330" y="1160" width="70" height="70" as="geometry"/>
                </mxCell>
                <mxCell id="122" value="Dir listing" style="rhombus;whiteSpace=wrap;html=1;" parent="1" vertex="1">
                    <mxGeometry x="1140" y="1260" width="70" height="70" as="geometry"/>
                </mxCell>
                <mxCell id="123" value="File" style="rhombus;whiteSpace=wrap;html=1;" parent="1" vertex="1">
                    <mxGeometry x="1220" y="1310" width="70" height="70" as="geometry"/>
                </mxCell>
                <mxCell id="125" value="Error" style="rhombus;whiteSpace=wrap;html=1;" parent="1" vertex="1">
                    <mxGeometry x="1290" y="1250" width="70" height="70" as="geometry"/>
                </mxCell>
                <mxCell id="131" value="Create&lt;br&gt;update&lt;br&gt;file" style="rhombus;whiteSpace=wrap;html=1;" parent="1" vertex="1">
                    <mxGeometry x="1380" y="1250" width="70" height="70" as="geometry"/>
                </mxCell>
                <mxCell id="135" value="" style="edgeStyle=none;html=1;entryX=0.5;entryY=0;entryDx=0;entryDy=0;" parent="1" source="134" target="92" edge="1">
                    <mxGeometry relative="1" as="geometry"/>
                </mxCell>
                <mxCell id="134" value="" style="ellipse;whiteSpace=wrap;html=1;aspect=fixed;fillColor=#0050ef;fontColor=#ffffff;strokeColor=#001DBC;" parent="1" vertex="1">
                    <mxGeometry x="1450" y="370" width="20" height="20" as="geometry"/>
                </mxCell>
                <mxCell id="142" value="" style="edgeStyle=none;html=1;exitX=0.5;exitY=0;exitDx=0;exitDy=0;" parent="1" source="139" target="141" edge="1">
                    <mxGeometry relative="1" as="geometry"/>
                </mxCell>
                <mxCell id="139" value="CGI&lt;br&gt;Request&lt;br&gt;(env)" style="rhombus;whiteSpace=wrap;html=1;" parent="1" vertex="1">
                    <mxGeometry x="1680" y="610" width="80" height="80" as="geometry"/>
                </mxCell>
                <mxCell id="144" value="" style="edgeStyle=none;html=1;entryX=0.5;entryY=0;entryDx=0;entryDy=0;" parent="1" source="141" target="143" edge="1">
                    <mxGeometry relative="1" as="geometry"/>
                </mxCell>
                <mxCell id="141" value="" style="ellipse;whiteSpace=wrap;html=1;aspect=fixed;fillColor=#60a917;fontColor=#ffffff;strokeColor=#2D7600;" parent="1" vertex="1">
                    <mxGeometry x="1830" y="370" width="20" height="20" as="geometry"/>
                </mxCell>
                <mxCell id="151" style="edgeStyle=none;html=1;exitX=0.5;exitY=1;exitDx=0;exitDy=0;entryX=0.5;entryY=1;entryDx=0;entryDy=0;" parent="1" source="143" target="93" edge="1">
                    <mxGeometry relative="1" as="geometry">
                        <Array as="points">
                            <mxPoint x="1920" y="820"/>
                            <mxPoint x="1750" y="880"/>
                            <mxPoint x="1640" y="800"/>
                        </Array>
                    </mxGeometry>
                </mxCell>
                <mxCell id="143" value="CGI&lt;br&gt;Response" style="rhombus;whiteSpace=wrap;html=1;" parent="1" vertex="1">
                    <mxGeometry x="1920" y="610" width="80" height="80" as="geometry"/>
                </mxCell>
            </root>
        </mxGraphModel>
    </diagram>
</mxfile>